<svg width="250" height="328" viewBox="0 0 250 328" fill="none" xmlns="http://www.w3.org/2000/svg">
<rect width="250" height="328" rx="40" fill="white"/>
<circle cx="126" cy="129" r="42" fill="#44BBEE"/>
<path d="M128.052 117C126.858 117 125.714 117.474 124.87 118.318C124.026 119.162 123.552 120.306 123.552 121.5V122H122.552C122.021 122 121.513 122.211 121.138 122.586C120.763 122.961 120.552 123.469 120.552 124V126.08C119.293 126.806 118.255 127.861 117.55 129.132C116.845 130.404 116.5 131.843 116.552 133.295C116.648 135.335 117.512 137.263 118.971 138.692C120.43 140.121 122.375 140.946 124.417 141H124.552C126.674 141 128.708 140.157 130.209 138.657C131.709 137.156 132.552 135.122 132.552 133C132.541 130.147 131.018 127.514 128.552 126.08V124C128.552 123.47 128.341 122.961 127.966 122.586C127.591 122.211 127.082 122 126.552 122H125.552V121.5C125.552 120.607 126.028 119.782 126.802 119.335C127.575 118.888 128.528 118.888 129.302 119.335C130.075 119.782 130.552 120.607 130.552 121.5V122C130.552 123.061 130.973 124.078 131.724 124.828C132.473 125.579 133.491 126 134.552 126C135.104 126 135.552 125.552 135.552 125C135.552 124.448 135.104 124 134.552 124C134.021 124 133.513 123.789 133.138 123.414C132.763 123.039 132.552 122.53 132.552 122V121.5C132.552 120.307 132.078 119.162 131.234 118.318C130.39 117.474 129.245 117 128.052 117L128.052 117ZM126.552 124V126.685C126.553 127.069 126.775 127.42 127.122 127.585C128.145 128.074 129.009 128.841 129.616 129.799C130.223 130.757 130.547 131.866 130.552 133C130.552 134.609 129.906 136.15 128.759 137.278C127.612 138.406 126.061 139.027 124.452 139C122.921 138.959 121.461 138.34 120.367 137.268C119.273 136.196 118.624 134.75 118.552 133.22C118.51 132.049 118.812 130.891 119.421 129.89C120.03 128.888 120.918 128.087 121.977 127.585C122.326 127.421 122.55 127.071 122.552 126.685V124H126.552Z" fill="white"/>
<path d="M138.258 120.295C137.868 119.907 137.238 119.907 136.847 120.295L135.848 121.294C135.636 121.476 135.51 121.737 135.499 122.015C135.488 122.294 135.594 122.564 135.791 122.761C135.988 122.958 136.258 123.064 136.537 123.053C136.815 123.043 137.076 122.916 137.258 122.705L138.258 121.705C138.645 121.314 138.645 120.684 138.258 120.295Z" fill="white"/>
<path d="M138.258 128.296L137.258 127.296V127.295C136.861 126.956 136.27 126.979 135.9 127.348C135.531 127.717 135.508 128.309 135.848 128.705L136.848 129.705C137.245 130.045 137.836 130.022 138.205 129.653C138.575 129.284 138.597 128.692 138.258 128.296H138.258Z" fill="white"/>
<path d="M139.553 124H138.553C138 124 137.553 124.448 137.553 125C137.553 125.552 138 126 138.553 126H139.553C140.105 126 140.552 125.552 140.552 125C140.552 124.448 140.105 124 139.553 124Z" fill="white"/>
<path d="M62.0703 198.797H57.2656L57.2422 197.578H61.3789C62.2227 197.578 62.9414 197.457 63.5352 197.215C64.1289 196.973 64.5781 196.613 64.8828 196.137C65.1953 195.652 65.3516 195.059 65.3516 194.355C65.3516 193.637 65.1992 193.043 64.8945 192.574C64.5898 192.098 64.1328 191.746 63.5234 191.52C62.9141 191.293 62.1484 191.18 61.2266 191.18H57.6406V207H56.1992V189.938H61.2266C62.0938 189.938 62.8711 190.023 63.5586 190.195C64.2461 190.367 64.832 190.637 65.3164 191.004C65.8008 191.371 66.168 191.836 66.418 192.398C66.6758 192.953 66.8047 193.617 66.8047 194.391C66.8047 195.094 66.6484 195.73 66.3359 196.301C66.0234 196.863 65.582 197.324 65.0117 197.684C64.4492 198.035 63.7734 198.254 62.9844 198.34L62.0703 198.797ZM61.9648 207H56.8086L57.5469 205.77H61.9648C62.8086 205.77 63.5273 205.629 64.1211 205.348C64.7227 205.059 65.1836 204.648 65.5039 204.117C65.8242 203.586 65.9844 202.953 65.9844 202.219C65.9844 201.57 65.8438 200.988 65.5625 200.473C65.2812 199.957 64.8516 199.551 64.2734 199.254C63.6953 198.949 62.9609 198.797 62.0703 198.797H59.082L59.1055 197.578H63.3359L63.5938 198.012C64.3594 198.09 65.0273 198.328 65.5977 198.727C66.1758 199.117 66.6211 199.613 66.9336 200.215C67.2539 200.816 67.4141 201.477 67.4141 202.195C67.4141 203.227 67.1836 204.102 66.7227 204.82C66.2695 205.531 65.6328 206.074 64.8125 206.449C64 206.816 63.0508 207 61.9648 207ZM75.4883 207.234C74.6602 207.234 73.8984 207.082 73.2031 206.777C72.5156 206.473 71.9141 206.043 71.3984 205.488C70.8906 204.934 70.4961 204.277 70.2148 203.52C69.9414 202.754 69.8047 201.918 69.8047 201.012V200.508C69.8047 199.531 69.9492 198.648 70.2383 197.859C70.5273 197.07 70.9258 196.395 71.4336 195.832C71.9414 195.27 72.5195 194.84 73.168 194.543C73.8242 194.238 74.5117 194.086 75.2305 194.086C76.0352 194.086 76.75 194.23 77.375 194.52C78 194.801 78.5234 195.203 78.9453 195.727C79.375 196.242 79.6992 196.855 79.918 197.566C80.1367 198.27 80.2461 199.047 80.2461 199.898V200.754H70.6484V199.559H78.8516V199.395C78.8359 198.684 78.6914 198.02 78.418 197.402C78.1523 196.777 77.7539 196.27 77.2227 195.879C76.6914 195.488 76.0273 195.293 75.2305 195.293C74.6367 195.293 74.0898 195.418 73.5898 195.668C73.0977 195.918 72.6719 196.277 72.3125 196.746C71.9609 197.207 71.6875 197.758 71.4922 198.398C71.3047 199.031 71.2109 199.734 71.2109 200.508V201.012C71.2109 201.715 71.3125 202.371 71.5156 202.98C71.7266 203.582 72.0234 204.113 72.4062 204.574C72.7969 205.035 73.2578 205.395 73.7891 205.652C74.3203 205.91 74.9062 206.039 75.5469 206.039C76.2969 206.039 76.9609 205.902 77.5391 205.629C78.1172 205.348 78.6367 204.906 79.0977 204.305L79.9766 204.984C79.7031 205.391 79.3594 205.766 78.9453 206.109C78.5391 206.453 78.0508 206.727 77.4805 206.93C76.9102 207.133 76.2461 207.234 75.4883 207.234ZM84.3945 196.758V211.875H82.9883V194.32H84.3008L84.3945 196.758ZM93.207 200.543V200.789C93.207 201.734 93.0977 202.602 92.8789 203.391C92.6602 204.18 92.3438 204.863 91.9297 205.441C91.5234 206.012 91.0195 206.453 90.418 206.766C89.8164 207.078 89.1328 207.234 88.3672 207.234C87.6094 207.234 86.9336 207.117 86.3398 206.883C85.7461 206.648 85.2344 206.316 84.8047 205.887C84.3828 205.449 84.043 204.941 83.7852 204.363C83.5352 203.777 83.3594 203.137 83.2578 202.441V199.195C83.375 198.43 83.5664 197.734 83.832 197.109C84.0977 196.484 84.4375 195.945 84.8516 195.492C85.2734 195.039 85.7734 194.691 86.3516 194.449C86.9297 194.207 87.5898 194.086 88.332 194.086C89.1055 194.086 89.793 194.238 90.3945 194.543C91.0039 194.84 91.5156 195.273 91.9297 195.844C92.3516 196.406 92.668 197.086 92.8789 197.883C93.0977 198.672 93.207 199.559 93.207 200.543ZM91.8008 200.789V200.543C91.8008 199.801 91.7227 199.113 91.5664 198.48C91.418 197.848 91.1875 197.297 90.875 196.828C90.5703 196.352 90.1797 195.98 89.7031 195.715C89.2344 195.449 88.6758 195.316 88.0273 195.316C87.3555 195.316 86.7812 195.43 86.3047 195.656C85.8359 195.875 85.4453 196.168 85.1328 196.535C84.8203 196.895 84.5742 197.289 84.3945 197.719C84.2148 198.148 84.082 198.57 83.9961 198.984V202.723C84.1445 203.316 84.3828 203.867 84.7109 204.375C85.0391 204.875 85.4766 205.277 86.0234 205.582C86.5781 205.879 87.2539 206.027 88.0508 206.027C88.6914 206.027 89.2461 205.895 89.7148 205.629C90.1836 205.363 90.5703 204.992 90.875 204.516C91.1875 204.039 91.418 203.484 91.5664 202.852C91.7227 202.219 91.8008 201.531 91.8008 200.789ZM95.5508 200.859V200.473C95.5508 199.551 95.6836 198.699 95.9492 197.918C96.2148 197.137 96.5938 196.461 97.0859 195.891C97.5859 195.32 98.1836 194.879 98.8789 194.566C99.5742 194.246 100.348 194.086 101.199 194.086C102.059 194.086 102.836 194.246 103.531 194.566C104.227 194.879 104.824 195.32 105.324 195.891C105.824 196.461 106.207 197.137 106.473 197.918C106.738 198.699 106.871 199.551 106.871 200.473V200.859C106.871 201.781 106.738 202.633 106.473 203.414C106.207 204.188 105.824 204.859 105.324 205.43C104.832 206 104.238 206.445 103.543 206.766C102.848 207.078 102.074 207.234 101.223 207.234C100.363 207.234 99.5859 207.078 98.8906 206.766C98.1953 206.445 97.5977 206 97.0977 205.43C96.5977 204.859 96.2148 204.188 95.9492 203.414C95.6836 202.633 95.5508 201.781 95.5508 200.859ZM96.9453 200.473V200.859C96.9453 201.555 97.0391 202.215 97.2266 202.84C97.4141 203.457 97.6875 204.008 98.0469 204.492C98.4062 204.969 98.8516 205.344 99.3828 205.617C99.9141 205.891 100.527 206.027 101.223 206.027C101.91 206.027 102.516 205.891 103.039 205.617C103.57 205.344 104.016 204.969 104.375 204.492C104.734 204.008 105.004 203.457 105.184 202.84C105.371 202.215 105.465 201.555 105.465 200.859V200.473C105.465 199.785 105.371 199.133 105.184 198.516C105.004 197.898 104.73 197.348 104.363 196.863C104.004 196.379 103.559 195.996 103.027 195.715C102.496 195.434 101.887 195.293 101.199 195.293C100.512 195.293 99.9023 195.434 99.3711 195.715C98.8477 195.996 98.4023 196.379 98.0352 196.863C97.6758 197.348 97.4023 197.898 97.2148 198.516C97.0352 199.133 96.9453 199.785 96.9453 200.473ZM112.543 201.188H114.09L110.574 207H109.027L112.543 201.188ZM114.031 194.32H119.012V207H117.617V195.516H114.031C113.289 195.516 112.684 195.641 112.215 195.891C111.754 196.133 111.414 196.453 111.195 196.852C110.984 197.25 110.879 197.676 110.879 198.129C110.879 198.559 110.973 198.969 111.16 199.359C111.355 199.75 111.656 200.07 112.062 200.32C112.469 200.562 112.996 200.684 113.645 200.684H118.121V201.891H113.645C112.98 201.891 112.391 201.797 111.875 201.609C111.359 201.422 110.922 201.16 110.562 200.824C110.211 200.48 109.941 200.078 109.754 199.617C109.574 199.148 109.484 198.645 109.484 198.105C109.484 197.559 109.582 197.059 109.777 196.605C109.98 196.145 110.273 195.742 110.656 195.398C111.047 195.055 111.523 194.789 112.086 194.602C112.656 194.414 113.305 194.32 114.031 194.32ZM127.285 194.32V207H125.891V194.32H127.285ZM131.902 194.32V195.516H121.438V194.32H131.902ZM142.871 199.992V201.188H135.348V199.992H142.871ZM135.711 194.32V207H134.316V194.32H135.711ZM143.949 194.32V207H142.543V194.32H143.949ZM146.949 200.859V200.473C146.949 199.551 147.082 198.699 147.348 197.918C147.613 197.137 147.992 196.461 148.484 195.891C148.984 195.32 149.582 194.879 150.277 194.566C150.973 194.246 151.746 194.086 152.598 194.086C153.457 194.086 154.234 194.246 154.93 194.566C155.625 194.879 156.223 195.32 156.723 195.891C157.223 196.461 157.605 197.137 157.871 197.918C158.137 198.699 158.27 199.551 158.27 200.473V200.859C158.27 201.781 158.137 202.633 157.871 203.414C157.605 204.188 157.223 204.859 156.723 205.43C156.23 206 155.637 206.445 154.941 206.766C154.246 207.078 153.473 207.234 152.621 207.234C151.762 207.234 150.984 207.078 150.289 206.766C149.594 206.445 148.996 206 148.496 205.43C147.996 204.859 147.613 204.188 147.348 203.414C147.082 202.633 146.949 201.781 146.949 200.859ZM148.344 200.473V200.859C148.344 201.555 148.438 202.215 148.625 202.84C148.812 203.457 149.086 204.008 149.445 204.492C149.805 204.969 150.25 205.344 150.781 205.617C151.312 205.891 151.926 206.027 152.621 206.027C153.309 206.027 153.914 205.891 154.438 205.617C154.969 205.344 155.414 204.969 155.773 204.492C156.133 204.008 156.402 203.457 156.582 202.84C156.77 202.215 156.863 201.555 156.863 200.859V200.473C156.863 199.785 156.77 199.133 156.582 198.516C156.402 197.898 156.129 197.348 155.762 196.863C155.402 196.379 154.957 195.996 154.426 195.715C153.895 195.434 153.285 195.293 152.598 195.293C151.91 195.293 151.301 195.434 150.77 195.715C150.246 195.996 149.801 196.379 149.434 196.863C149.074 197.348 148.801 197.898 148.613 198.516C148.434 199.133 148.344 199.785 148.344 200.473ZM165.852 206.027C166.445 206.027 167 205.918 167.516 205.699C168.039 205.473 168.469 205.141 168.805 204.703C169.148 204.258 169.344 203.715 169.391 203.074H170.727C170.688 203.879 170.441 204.598 169.988 205.23C169.543 205.855 168.957 206.348 168.23 206.707C167.512 207.059 166.719 207.234 165.852 207.234C164.969 207.234 164.188 207.074 163.508 206.754C162.836 206.434 162.273 205.988 161.82 205.418C161.367 204.84 161.023 204.168 160.789 203.402C160.562 202.629 160.449 201.797 160.449 200.906V200.414C160.449 199.523 160.562 198.695 160.789 197.93C161.023 197.156 161.367 196.484 161.82 195.914C162.273 195.336 162.836 194.887 163.508 194.566C164.18 194.246 164.957 194.086 165.84 194.086C166.746 194.086 167.559 194.27 168.277 194.637C169.004 195.004 169.582 195.523 170.012 196.195C170.449 196.867 170.688 197.664 170.727 198.586H169.391C169.352 197.906 169.172 197.32 168.852 196.828C168.531 196.336 168.109 195.957 167.586 195.691C167.062 195.426 166.48 195.293 165.84 195.293C165.121 195.293 164.508 195.434 164 195.715C163.492 195.988 163.078 196.367 162.758 196.852C162.445 197.328 162.215 197.875 162.066 198.492C161.918 199.102 161.844 199.742 161.844 200.414V200.906C161.844 201.586 161.914 202.234 162.055 202.852C162.203 203.461 162.434 204.004 162.746 204.48C163.066 204.957 163.48 205.336 163.988 205.617C164.504 205.891 165.125 206.027 165.852 206.027ZM178.027 194.32V207H176.633V194.32H178.027ZM182.645 194.32V195.516H172.18V194.32H182.645ZM186.008 198.914H190.145C191.145 198.914 191.988 199.09 192.676 199.441C193.363 199.785 193.883 200.262 194.234 200.871C194.594 201.48 194.773 202.168 194.773 202.934C194.773 203.512 194.672 204.051 194.469 204.551C194.273 205.043 193.977 205.473 193.578 205.84C193.188 206.207 192.703 206.492 192.125 206.695C191.555 206.898 190.895 207 190.145 207H185.117V194.32H186.512V205.793H190.145C190.918 205.793 191.543 205.66 192.02 205.395C192.496 205.121 192.84 204.77 193.051 204.34C193.27 203.91 193.379 203.453 193.379 202.969C193.379 202.492 193.27 202.039 193.051 201.609C192.84 201.172 192.496 200.816 192.02 200.543C191.543 200.262 190.918 200.121 190.145 200.121H186.008V198.914ZM96.5117 234.027C97.1055 234.027 97.6602 233.918 98.1758 233.699C98.6992 233.473 99.1289 233.141 99.4648 232.703C99.8086 232.258 100.004 231.715 100.051 231.074H101.387C101.348 231.879 101.102 232.598 100.648 233.23C100.203 233.855 99.6172 234.348 98.8906 234.707C98.1719 235.059 97.3789 235.234 96.5117 235.234C95.6289 235.234 94.8477 235.074 94.168 234.754C93.4961 234.434 92.9336 233.988 92.4805 233.418C92.0273 232.84 91.6836 232.168 91.4492 231.402C91.2227 230.629 91.1094 229.797 91.1094 228.906V228.414C91.1094 227.523 91.2227 226.695 91.4492 225.93C91.6836 225.156 92.0273 224.484 92.4805 223.914C92.9336 223.336 93.4961 222.887 94.168 222.566C94.8398 222.246 95.6172 222.086 96.5 222.086C97.4062 222.086 98.2188 222.27 98.9375 222.637C99.6641 223.004 100.242 223.523 100.672 224.195C101.109 224.867 101.348 225.664 101.387 226.586H100.051C100.012 225.906 99.832 225.32 99.5117 224.828C99.1914 224.336 98.7695 223.957 98.2461 223.691C97.7227 223.426 97.1406 223.293 96.5 223.293C95.7812 223.293 95.168 223.434 94.6602 223.715C94.1523 223.988 93.7383 224.367 93.418 224.852C93.1055 225.328 92.875 225.875 92.7266 226.492C92.5781 227.102 92.5039 227.742 92.5039 228.414V228.906C92.5039 229.586 92.5742 230.234 92.7148 230.852C92.8633 231.461 93.0938 232.004 93.4062 232.48C93.7266 232.957 94.1406 233.336 94.6484 233.617C95.1641 233.891 95.7852 234.027 96.5117 234.027ZM105.594 224.758V239.875H104.188V222.32H105.5L105.594 224.758ZM114.406 228.543V228.789C114.406 229.734 114.297 230.602 114.078 231.391C113.859 232.18 113.543 232.863 113.129 233.441C112.723 234.012 112.219 234.453 111.617 234.766C111.016 235.078 110.332 235.234 109.566 235.234C108.809 235.234 108.133 235.117 107.539 234.883C106.945 234.648 106.434 234.316 106.004 233.887C105.582 233.449 105.242 232.941 104.984 232.363C104.734 231.777 104.559 231.137 104.457 230.441V227.195C104.574 226.43 104.766 225.734 105.031 225.109C105.297 224.484 105.637 223.945 106.051 223.492C106.473 223.039 106.973 222.691 107.551 222.449C108.129 222.207 108.789 222.086 109.531 222.086C110.305 222.086 110.992 222.238 111.594 222.543C112.203 222.84 112.715 223.273 113.129 223.844C113.551 224.406 113.867 225.086 114.078 225.883C114.297 226.672 114.406 227.559 114.406 228.543ZM113 228.789V228.543C113 227.801 112.922 227.113 112.766 226.48C112.617 225.848 112.387 225.297 112.074 224.828C111.77 224.352 111.379 223.98 110.902 223.715C110.434 223.449 109.875 223.316 109.227 223.316C108.555 223.316 107.98 223.43 107.504 223.656C107.035 223.875 106.645 224.168 106.332 224.535C106.02 224.895 105.773 225.289 105.594 225.719C105.414 226.148 105.281 226.57 105.195 226.984V230.723C105.344 231.316 105.582 231.867 105.91 232.375C106.238 232.875 106.676 233.277 107.223 233.582C107.777 233.879 108.453 234.027 109.25 234.027C109.891 234.027 110.445 233.895 110.914 233.629C111.383 233.363 111.77 232.992 112.074 232.516C112.387 232.039 112.617 231.484 112.766 230.852C112.922 230.219 113 229.531 113 228.789ZM118.566 226.914H122.703C123.703 226.914 124.547 227.09 125.234 227.441C125.922 227.785 126.441 228.262 126.793 228.871C127.152 229.48 127.332 230.168 127.332 230.934C127.332 231.512 127.23 232.051 127.027 232.551C126.832 233.043 126.535 233.473 126.137 233.84C125.746 234.207 125.262 234.492 124.684 234.695C124.113 234.898 123.453 235 122.703 235H117.676V222.32H119.07V233.793H122.703C123.477 233.793 124.102 233.66 124.578 233.395C125.055 233.121 125.398 232.77 125.609 232.34C125.828 231.91 125.938 231.453 125.938 230.969C125.938 230.492 125.828 230.039 125.609 229.609C125.398 229.172 125.055 228.816 124.578 228.543C124.102 228.262 123.477 228.121 122.703 228.121H118.566V226.914ZM131.633 222.32V235H130.238V222.32H131.633ZM141.148 229.152H136.695L136.672 227.98H140.469C141.234 227.98 141.871 227.898 142.379 227.734C142.895 227.562 143.281 227.309 143.539 226.973C143.805 226.637 143.938 226.223 143.938 225.73C143.938 225.355 143.859 225.027 143.703 224.746C143.555 224.465 143.328 224.234 143.023 224.055C142.727 223.875 142.352 223.742 141.898 223.656C141.453 223.562 140.934 223.516 140.34 223.516H137.094V235H135.699V222.32H140.34C141.113 222.32 141.805 222.391 142.414 222.531C143.031 222.664 143.559 222.867 143.996 223.141C144.434 223.414 144.766 223.766 144.992 224.195C145.227 224.617 145.344 225.117 145.344 225.695C145.344 226.086 145.27 226.453 145.121 226.797C144.973 227.133 144.754 227.438 144.465 227.711C144.184 227.977 143.836 228.195 143.422 228.367C143.008 228.531 142.531 228.633 141.992 228.672L141.148 229.152ZM141.148 235H136.262L136.801 233.805H141.148C141.852 233.805 142.449 233.715 142.941 233.535C143.434 233.355 143.805 233.09 144.055 232.738C144.312 232.387 144.441 231.961 144.441 231.461C144.441 230.992 144.312 230.586 144.055 230.242C143.805 229.898 143.434 229.633 142.941 229.445C142.449 229.25 141.852 229.152 141.148 229.152H137.914L137.938 227.98H142.098L142.695 228.426C143.336 228.48 143.891 228.652 144.359 228.941C144.828 229.23 145.191 229.598 145.449 230.043C145.707 230.48 145.836 230.961 145.836 231.484C145.836 232.062 145.727 232.574 145.508 233.02C145.289 233.457 144.973 233.824 144.559 234.121C144.152 234.41 143.66 234.629 143.082 234.777C142.504 234.926 141.859 235 141.148 235ZM156.688 232.727V226.188C156.688 225.586 156.562 225.066 156.312 224.629C156.062 224.191 155.695 223.855 155.211 223.621C154.727 223.387 154.129 223.27 153.418 223.27C152.762 223.27 152.176 223.387 151.66 223.621C151.152 223.848 150.75 224.156 150.453 224.547C150.164 224.93 150.02 225.355 150.02 225.824L148.613 225.812C148.613 225.336 148.73 224.875 148.965 224.43C149.199 223.984 149.531 223.586 149.961 223.234C150.391 222.883 150.902 222.605 151.496 222.402C152.098 222.191 152.758 222.086 153.477 222.086C154.383 222.086 155.18 222.238 155.867 222.543C156.562 222.848 157.105 223.305 157.496 223.914C157.887 224.523 158.082 225.289 158.082 226.211V232.34C158.082 232.777 158.113 233.23 158.176 233.699C158.246 234.168 158.344 234.555 158.469 234.859V235H156.98C156.887 234.719 156.812 234.367 156.758 233.945C156.711 233.516 156.688 233.109 156.688 232.727ZM157.016 227.617L157.039 228.695H154.285C153.566 228.695 152.922 228.762 152.352 228.895C151.789 229.02 151.312 229.207 150.922 229.457C150.531 229.699 150.23 229.992 150.02 230.336C149.816 230.68 149.715 231.07 149.715 231.508C149.715 231.961 149.828 232.375 150.055 232.75C150.289 233.125 150.617 233.426 151.039 233.652C151.469 233.871 151.977 233.98 152.562 233.98C153.344 233.98 154.031 233.836 154.625 233.547C155.227 233.258 155.723 232.879 156.113 232.41C156.504 231.941 156.766 231.43 156.898 230.875L157.508 231.684C157.406 232.074 157.219 232.477 156.945 232.891C156.68 233.297 156.332 233.68 155.902 234.039C155.473 234.391 154.965 234.68 154.379 234.906C153.801 235.125 153.145 235.234 152.41 235.234C151.582 235.234 150.859 235.078 150.242 234.766C149.633 234.453 149.156 234.027 148.812 233.488C148.477 232.941 148.309 232.324 148.309 231.637C148.309 231.012 148.441 230.453 148.707 229.961C148.973 229.461 149.355 229.039 149.855 228.695C150.363 228.344 150.973 228.078 151.684 227.898C152.402 227.711 153.207 227.617 154.098 227.617H157.016Z" fill="#333333"/>
</svg>
