<svg width="250" height="328" viewBox="0 0 250 328" fill="none" xmlns="http://www.w3.org/2000/svg">
<rect width="250" height="328" rx="40" fill="white"/>
<circle cx="126" cy="129" r="42" fill="#44BBEE"/>
<path d="M114.863 123.168L114.156 122.461L114.863 123.168ZM124.337 122.032L123.63 121.324L124.337 122.032ZM120.168 117.863L120.876 118.57L120.168 117.863ZM123.63 121.324L118.324 126.63L119.739 128.044L125.044 122.739L123.63 121.324ZM115.57 123.876L120.876 118.57L119.461 117.156L114.156 122.461L115.57 123.876ZM115.57 126.63C114.81 125.869 114.81 124.636 115.57 123.876L114.156 122.461C112.615 124.003 112.615 126.502 114.156 128.044L115.57 126.63ZM118.324 126.63C117.564 127.39 116.331 127.39 115.57 126.63L114.156 128.044C115.698 129.585 118.197 129.585 119.739 128.044L118.324 126.63ZM123.63 118.57C124.39 119.331 124.39 120.564 123.63 121.324L125.044 122.739C126.585 121.197 126.585 118.698 125.044 117.156L123.63 118.57ZM125.044 117.156C123.502 115.615 121.003 115.615 119.461 117.156L120.876 118.57C121.636 117.81 122.869 117.81 123.63 118.57L125.044 117.156ZM117.405 121.385L121.194 125.174L122.608 123.76L118.819 119.97L117.405 121.385Z" fill="white"/>
<circle cx="130.174" cy="132.803" r="7.19726" fill="#44BBEE" stroke="white" stroke-width="2"/>
<line x1="124.92" y1="126.879" x2="136.098" y2="138.057" stroke="white" stroke-width="2"/>
<path d="M102.863 189.938V207H101.434V191.18H91.7656V207H90.3242V189.938H102.863ZM108.324 196.758V211.875H106.918V194.32H108.23L108.324 196.758ZM117.137 200.543V200.789C117.137 201.734 117.027 202.602 116.809 203.391C116.59 204.18 116.273 204.863 115.859 205.441C115.453 206.012 114.949 206.453 114.348 206.766C113.746 207.078 113.062 207.234 112.297 207.234C111.539 207.234 110.863 207.117 110.27 206.883C109.676 206.648 109.164 206.316 108.734 205.887C108.312 205.449 107.973 204.941 107.715 204.363C107.465 203.777 107.289 203.137 107.188 202.441V199.195C107.305 198.43 107.496 197.734 107.762 197.109C108.027 196.484 108.367 195.945 108.781 195.492C109.203 195.039 109.703 194.691 110.281 194.449C110.859 194.207 111.52 194.086 112.262 194.086C113.035 194.086 113.723 194.238 114.324 194.543C114.934 194.84 115.445 195.273 115.859 195.844C116.281 196.406 116.598 197.086 116.809 197.883C117.027 198.672 117.137 199.559 117.137 200.543ZM115.73 200.789V200.543C115.73 199.801 115.652 199.113 115.496 198.48C115.348 197.848 115.117 197.297 114.805 196.828C114.5 196.352 114.109 195.98 113.633 195.715C113.164 195.449 112.605 195.316 111.957 195.316C111.285 195.316 110.711 195.43 110.234 195.656C109.766 195.875 109.375 196.168 109.062 196.535C108.75 196.895 108.504 197.289 108.324 197.719C108.145 198.148 108.012 198.57 107.926 198.984V202.723C108.074 203.316 108.312 203.867 108.641 204.375C108.969 204.875 109.406 205.277 109.953 205.582C110.508 205.879 111.184 206.027 111.98 206.027C112.621 206.027 113.176 205.895 113.645 205.629C114.113 205.363 114.5 204.992 114.805 204.516C115.117 204.039 115.348 203.484 115.496 202.852C115.652 202.219 115.73 201.531 115.73 200.789ZM121.73 204.727L128.586 194.32H129.992V207H128.586V196.594L121.73 207H120.348V194.32H121.73V204.727ZM138.652 207.234C137.824 207.234 137.062 207.082 136.367 206.777C135.68 206.473 135.078 206.043 134.562 205.488C134.055 204.934 133.66 204.277 133.379 203.52C133.105 202.754 132.969 201.918 132.969 201.012V200.508C132.969 199.531 133.113 198.648 133.402 197.859C133.691 197.07 134.09 196.395 134.598 195.832C135.105 195.27 135.684 194.84 136.332 194.543C136.988 194.238 137.676 194.086 138.395 194.086C139.199 194.086 139.914 194.23 140.539 194.52C141.164 194.801 141.688 195.203 142.109 195.727C142.539 196.242 142.863 196.855 143.082 197.566C143.301 198.27 143.41 199.047 143.41 199.898V200.754H133.812V199.559H142.016V199.395C142 198.684 141.855 198.02 141.582 197.402C141.316 196.777 140.918 196.27 140.387 195.879C139.855 195.488 139.191 195.293 138.395 195.293C137.801 195.293 137.254 195.418 136.754 195.668C136.262 195.918 135.836 196.277 135.477 196.746C135.125 197.207 134.852 197.758 134.656 198.398C134.469 199.031 134.375 199.734 134.375 200.508V201.012C134.375 201.715 134.477 202.371 134.68 202.98C134.891 203.582 135.188 204.113 135.57 204.574C135.961 205.035 136.422 205.395 136.953 205.652C137.484 205.91 138.07 206.039 138.711 206.039C139.461 206.039 140.125 205.902 140.703 205.629C141.281 205.348 141.801 204.906 142.262 204.305L143.141 204.984C142.867 205.391 142.523 205.766 142.109 206.109C141.703 206.453 141.215 206.727 140.645 206.93C140.074 207.133 139.41 207.234 138.652 207.234ZM135.043 190.652C135.043 190.387 135.129 190.164 135.301 189.984C135.473 189.797 135.707 189.703 136.004 189.703C136.301 189.703 136.535 189.797 136.707 189.984C136.879 190.164 136.965 190.387 136.965 190.652C136.965 190.91 136.879 191.129 136.707 191.309C136.535 191.488 136.301 191.578 136.004 191.578C135.707 191.578 135.473 191.488 135.301 191.309C135.129 191.129 135.043 190.91 135.043 190.652ZM140.176 190.664C140.176 190.398 140.258 190.172 140.422 189.984C140.594 189.797 140.832 189.703 141.137 189.703C141.434 189.703 141.668 189.797 141.84 189.984C142.012 190.172 142.098 190.398 142.098 190.664C142.098 190.922 142.012 191.141 141.84 191.32C141.668 191.5 141.434 191.59 141.137 191.59C140.832 191.59 140.594 191.5 140.422 191.32C140.258 191.141 140.176 190.922 140.176 190.664ZM153.184 205.078L158.223 194.32H159.617L153.676 207H152.691L146.762 194.32H148.156L153.184 205.078ZM147.723 194.32V207H146.328V194.32H147.723ZM158.551 207V194.32H159.957V207H158.551ZM70.7305 222.32V223.539H63.3125V222.32H70.7305ZM63.6289 222.32V235H62.2344V222.32H63.6289ZM71.8789 222.32V235H70.4727V222.32H71.8789ZM77.0234 224.758V239.875H75.6172V222.32H76.9297L77.0234 224.758ZM85.8359 228.543V228.789C85.8359 229.734 85.7266 230.602 85.5078 231.391C85.2891 232.18 84.9727 232.863 84.5586 233.441C84.1523 234.012 83.6484 234.453 83.0469 234.766C82.4453 235.078 81.7617 235.234 80.9961 235.234C80.2383 235.234 79.5625 235.117 78.9688 234.883C78.375 234.648 77.8633 234.316 77.4336 233.887C77.0117 233.449 76.6719 232.941 76.4141 232.363C76.1641 231.777 75.9883 231.137 75.8867 230.441V227.195C76.0039 226.43 76.1953 225.734 76.4609 225.109C76.7266 224.484 77.0664 223.945 77.4805 223.492C77.9023 223.039 78.4023 222.691 78.9805 222.449C79.5586 222.207 80.2188 222.086 80.9609 222.086C81.7344 222.086 82.4219 222.238 83.0234 222.543C83.6328 222.84 84.1445 223.273 84.5586 223.844C84.9805 224.406 85.2969 225.086 85.5078 225.883C85.7266 226.672 85.8359 227.559 85.8359 228.543ZM84.4297 228.789V228.543C84.4297 227.801 84.3516 227.113 84.1953 226.48C84.0469 225.848 83.8164 225.297 83.5039 224.828C83.1992 224.352 82.8086 223.98 82.332 223.715C81.8633 223.449 81.3047 223.316 80.6562 223.316C79.9844 223.316 79.4102 223.43 78.9336 223.656C78.4648 223.875 78.0742 224.168 77.7617 224.535C77.4492 224.895 77.2031 225.289 77.0234 225.719C76.8438 226.148 76.7109 226.57 76.625 226.984V230.723C76.7734 231.316 77.0117 231.867 77.3398 232.375C77.668 232.875 78.1055 233.277 78.6523 233.582C79.207 233.879 79.8828 234.027 80.6797 234.027C81.3203 234.027 81.875 233.895 82.3438 233.629C82.8125 233.363 83.1992 232.992 83.5039 232.516C83.8164 232.039 84.0469 231.484 84.1953 230.852C84.3516 230.219 84.4297 229.531 84.4297 228.789ZM93.8516 235.234C93.0234 235.234 92.2617 235.082 91.5664 234.777C90.8789 234.473 90.2773 234.043 89.7617 233.488C89.2539 232.934 88.8594 232.277 88.5781 231.52C88.3047 230.754 88.168 229.918 88.168 229.012V228.508C88.168 227.531 88.3125 226.648 88.6016 225.859C88.8906 225.07 89.2891 224.395 89.7969 223.832C90.3047 223.27 90.8828 222.84 91.5312 222.543C92.1875 222.238 92.875 222.086 93.5938 222.086C94.3984 222.086 95.1133 222.23 95.7383 222.52C96.3633 222.801 96.8867 223.203 97.3086 223.727C97.7383 224.242 98.0625 224.855 98.2812 225.566C98.5 226.27 98.6094 227.047 98.6094 227.898V228.754H89.0117V227.559H97.2148V227.395C97.1992 226.684 97.0547 226.02 96.7812 225.402C96.5156 224.777 96.1172 224.27 95.5859 223.879C95.0547 223.488 94.3906 223.293 93.5938 223.293C93 223.293 92.4531 223.418 91.9531 223.668C91.4609 223.918 91.0352 224.277 90.6758 224.746C90.3242 225.207 90.0508 225.758 89.8555 226.398C89.668 227.031 89.5742 227.734 89.5742 228.508V229.012C89.5742 229.715 89.6758 230.371 89.8789 230.98C90.0898 231.582 90.3867 232.113 90.7695 232.574C91.1602 233.035 91.6211 233.395 92.1523 233.652C92.6836 233.91 93.2695 234.039 93.9102 234.039C94.6602 234.039 95.3242 233.902 95.9023 233.629C96.4805 233.348 97 232.906 97.4609 232.305L98.3398 232.984C98.0664 233.391 97.7227 233.766 97.3086 234.109C96.9023 234.453 96.4141 234.727 95.8438 234.93C95.2734 235.133 94.6094 235.234 93.8516 235.234ZM109.965 222.32V223.539H102.547V222.32H109.965ZM102.863 222.32V235H101.469V222.32H102.863ZM111.113 222.32V235H109.707V222.32H111.113ZM122.586 232.727V226.188C122.586 225.586 122.461 225.066 122.211 224.629C121.961 224.191 121.594 223.855 121.109 223.621C120.625 223.387 120.027 223.27 119.316 223.27C118.66 223.27 118.074 223.387 117.559 223.621C117.051 223.848 116.648 224.156 116.352 224.547C116.062 224.93 115.918 225.355 115.918 225.824L114.512 225.812C114.512 225.336 114.629 224.875 114.863 224.43C115.098 223.984 115.43 223.586 115.859 223.234C116.289 222.883 116.801 222.605 117.395 222.402C117.996 222.191 118.656 222.086 119.375 222.086C120.281 222.086 121.078 222.238 121.766 222.543C122.461 222.848 123.004 223.305 123.395 223.914C123.785 224.523 123.98 225.289 123.98 226.211V232.34C123.98 232.777 124.012 233.23 124.074 233.699C124.145 234.168 124.242 234.555 124.367 234.859V235H122.879C122.785 234.719 122.711 234.367 122.656 233.945C122.609 233.516 122.586 233.109 122.586 232.727ZM122.914 227.617L122.938 228.695H120.184C119.465 228.695 118.82 228.762 118.25 228.895C117.688 229.02 117.211 229.207 116.82 229.457C116.43 229.699 116.129 229.992 115.918 230.336C115.715 230.68 115.613 231.07 115.613 231.508C115.613 231.961 115.727 232.375 115.953 232.75C116.188 233.125 116.516 233.426 116.938 233.652C117.367 233.871 117.875 233.98 118.461 233.98C119.242 233.98 119.93 233.836 120.523 233.547C121.125 233.258 121.621 232.879 122.012 232.41C122.402 231.941 122.664 231.43 122.797 230.875L123.406 231.684C123.305 232.074 123.117 232.477 122.844 232.891C122.578 233.297 122.23 233.68 121.801 234.039C121.371 234.391 120.863 234.68 120.277 234.906C119.699 235.125 119.043 235.234 118.309 235.234C117.48 235.234 116.758 235.078 116.141 234.766C115.531 234.453 115.055 234.027 114.711 233.488C114.375 232.941 114.207 232.324 114.207 231.637C114.207 231.012 114.34 230.453 114.605 229.961C114.871 229.461 115.254 229.039 115.754 228.695C116.262 228.344 116.871 228.078 117.582 227.898C118.301 227.711 119.105 227.617 119.996 227.617H122.914ZM129.125 224.758V239.875H127.719V222.32H129.031L129.125 224.758ZM137.938 228.543V228.789C137.938 229.734 137.828 230.602 137.609 231.391C137.391 232.18 137.074 232.863 136.66 233.441C136.254 234.012 135.75 234.453 135.148 234.766C134.547 235.078 133.863 235.234 133.098 235.234C132.34 235.234 131.664 235.117 131.07 234.883C130.477 234.648 129.965 234.316 129.535 233.887C129.113 233.449 128.773 232.941 128.516 232.363C128.266 231.777 128.09 231.137 127.988 230.441V227.195C128.105 226.43 128.297 225.734 128.562 225.109C128.828 224.484 129.168 223.945 129.582 223.492C130.004 223.039 130.504 222.691 131.082 222.449C131.66 222.207 132.32 222.086 133.062 222.086C133.836 222.086 134.523 222.238 135.125 222.543C135.734 222.84 136.246 223.273 136.66 223.844C137.082 224.406 137.398 225.086 137.609 225.883C137.828 226.672 137.938 227.559 137.938 228.543ZM136.531 228.789V228.543C136.531 227.801 136.453 227.113 136.297 226.48C136.148 225.848 135.918 225.297 135.605 224.828C135.301 224.352 134.91 223.98 134.434 223.715C133.965 223.449 133.406 223.316 132.758 223.316C132.086 223.316 131.512 223.43 131.035 223.656C130.566 223.875 130.176 224.168 129.863 224.535C129.551 224.895 129.305 225.289 129.125 225.719C128.945 226.148 128.812 226.57 128.727 226.984V230.723C128.875 231.316 129.113 231.867 129.441 232.375C129.77 232.875 130.207 233.277 130.754 233.582C131.309 233.879 131.984 234.027 132.781 234.027C133.422 234.027 133.977 233.895 134.445 233.629C134.914 233.363 135.301 232.992 135.605 232.516C135.918 232.039 136.148 231.484 136.297 230.852C136.453 230.219 136.531 229.531 136.531 228.789ZM148.766 232.727V226.188C148.766 225.586 148.641 225.066 148.391 224.629C148.141 224.191 147.773 223.855 147.289 223.621C146.805 223.387 146.207 223.27 145.496 223.27C144.84 223.27 144.254 223.387 143.738 223.621C143.23 223.848 142.828 224.156 142.531 224.547C142.242 224.93 142.098 225.355 142.098 225.824L140.691 225.812C140.691 225.336 140.809 224.875 141.043 224.43C141.277 223.984 141.609 223.586 142.039 223.234C142.469 222.883 142.98 222.605 143.574 222.402C144.176 222.191 144.836 222.086 145.555 222.086C146.461 222.086 147.258 222.238 147.945 222.543C148.641 222.848 149.184 223.305 149.574 223.914C149.965 224.523 150.16 225.289 150.16 226.211V232.34C150.16 232.777 150.191 233.23 150.254 233.699C150.324 234.168 150.422 234.555 150.547 234.859V235H149.059C148.965 234.719 148.891 234.367 148.836 233.945C148.789 233.516 148.766 233.109 148.766 232.727ZM149.094 227.617L149.117 228.695H146.363C145.645 228.695 145 228.762 144.43 228.895C143.867 229.02 143.391 229.207 143 229.457C142.609 229.699 142.309 229.992 142.098 230.336C141.895 230.68 141.793 231.07 141.793 231.508C141.793 231.961 141.906 232.375 142.133 232.75C142.367 233.125 142.695 233.426 143.117 233.652C143.547 233.871 144.055 233.98 144.641 233.98C145.422 233.98 146.109 233.836 146.703 233.547C147.305 233.258 147.801 232.879 148.191 232.41C148.582 231.941 148.844 231.43 148.977 230.875L149.586 231.684C149.484 232.074 149.297 232.477 149.023 232.891C148.758 233.297 148.41 233.68 147.98 234.039C147.551 234.391 147.043 234.68 146.457 234.906C145.879 235.125 145.223 235.234 144.488 235.234C143.66 235.234 142.938 235.078 142.32 234.766C141.711 234.453 141.234 234.027 140.891 233.488C140.555 232.941 140.387 232.324 140.387 231.637C140.387 231.012 140.52 230.453 140.785 229.961C141.051 229.461 141.434 229.039 141.934 228.695C142.441 228.344 143.051 228.078 143.762 227.898C144.48 227.711 145.285 227.617 146.176 227.617H149.094ZM158.211 222.32V235H156.816V222.32H158.211ZM162.828 222.32V223.516H152.363V222.32H162.828ZM163.883 228.859V228.473C163.883 227.551 164.016 226.699 164.281 225.918C164.547 225.137 164.926 224.461 165.418 223.891C165.918 223.32 166.516 222.879 167.211 222.566C167.906 222.246 168.68 222.086 169.531 222.086C170.391 222.086 171.168 222.246 171.863 222.566C172.559 222.879 173.156 223.32 173.656 223.891C174.156 224.461 174.539 225.137 174.805 225.918C175.07 226.699 175.203 227.551 175.203 228.473V228.859C175.203 229.781 175.07 230.633 174.805 231.414C174.539 232.188 174.156 232.859 173.656 233.43C173.164 234 172.57 234.445 171.875 234.766C171.18 235.078 170.406 235.234 169.555 235.234C168.695 235.234 167.918 235.078 167.223 234.766C166.527 234.445 165.93 234 165.43 233.43C164.93 232.859 164.547 232.188 164.281 231.414C164.016 230.633 163.883 229.781 163.883 228.859ZM165.277 228.473V228.859C165.277 229.555 165.371 230.215 165.559 230.84C165.746 231.457 166.02 232.008 166.379 232.492C166.738 232.969 167.184 233.344 167.715 233.617C168.246 233.891 168.859 234.027 169.555 234.027C170.242 234.027 170.848 233.891 171.371 233.617C171.902 233.344 172.348 232.969 172.707 232.492C173.066 232.008 173.336 231.457 173.516 230.84C173.703 230.215 173.797 229.555 173.797 228.859V228.473C173.797 227.785 173.703 227.133 173.516 226.516C173.336 225.898 173.062 225.348 172.695 224.863C172.336 224.379 171.891 223.996 171.359 223.715C170.828 223.434 170.219 223.293 169.531 223.293C168.844 223.293 168.234 223.434 167.703 223.715C167.18 223.996 166.734 224.379 166.367 224.863C166.008 225.348 165.734 225.898 165.547 226.516C165.367 227.133 165.277 227.785 165.277 228.473ZM183.711 229.152H179.258L179.234 227.98H183.031C183.797 227.98 184.434 227.898 184.941 227.734C185.457 227.562 185.844 227.309 186.102 226.973C186.367 226.637 186.5 226.223 186.5 225.73C186.5 225.355 186.422 225.027 186.266 224.746C186.117 224.465 185.891 224.234 185.586 224.055C185.289 223.875 184.914 223.742 184.461 223.656C184.016 223.562 183.496 223.516 182.902 223.516H179.656V235H178.262V222.32H182.902C183.676 222.32 184.367 222.391 184.977 222.531C185.594 222.664 186.121 222.867 186.559 223.141C186.996 223.414 187.328 223.766 187.555 224.195C187.789 224.617 187.906 225.117 187.906 225.695C187.906 226.086 187.832 226.453 187.684 226.797C187.535 227.133 187.316 227.438 187.027 227.711C186.746 227.977 186.398 228.195 185.984 228.367C185.57 228.531 185.094 228.633 184.555 228.672L183.711 229.152ZM183.711 235H178.824L179.363 233.805H183.711C184.414 233.805 185.012 233.715 185.504 233.535C185.996 233.355 186.367 233.09 186.617 232.738C186.875 232.387 187.004 231.961 187.004 231.461C187.004 230.992 186.875 230.586 186.617 230.242C186.367 229.898 185.996 229.633 185.504 229.445C185.012 229.25 184.414 229.152 183.711 229.152H180.477L180.5 227.98H184.66L185.258 228.426C185.898 228.48 186.453 228.652 186.922 228.941C187.391 229.23 187.754 229.598 188.012 230.043C188.27 230.48 188.398 230.961 188.398 231.484C188.398 232.062 188.289 232.574 188.07 233.02C187.852 233.457 187.535 233.824 187.121 234.121C186.715 234.41 186.223 234.629 185.645 234.777C185.066 234.926 184.422 235 183.711 235Z" fill="#333333"/>
</svg>
