<svg width="250" height="328" viewBox="0 0 250 328" fill="none" xmlns="http://www.w3.org/2000/svg">
<rect width="250" height="328" rx="40" fill="white"/>
<circle cx="126" cy="129" r="42" fill="#44BBEE"/>
<path d="M127.186 116.668C126.892 116.58 126.578 116.59 126.291 116.698C126.004 116.805 125.759 117.004 125.596 117.263L117.345 130.064C117.145 130.371 117.13 130.764 117.305 131.086C117.481 131.408 117.818 131.609 118.185 131.609H124.186V139.189C124.183 139.493 124.279 139.79 124.46 140.035C124.64 140.28 124.894 140.461 125.186 140.549C125.317 140.588 125.454 140.608 125.591 140.609C126.072 140.609 126.519 140.362 126.776 139.954L135.026 127.149C135.223 126.841 135.237 126.451 135.062 126.13C134.887 125.809 134.551 125.609 134.186 125.609H128.186V118.028C128.188 117.724 128.092 117.427 127.912 117.182C127.731 116.937 127.477 116.757 127.186 116.668L127.186 116.668ZM132.356 127.609L126.186 137.204V130.608C126.186 130.343 126.08 130.089 125.893 129.901C125.705 129.713 125.451 129.608 125.186 129.608H120.015L126.186 120.013V126.609C126.186 126.874 126.291 127.128 126.479 127.316C126.666 127.503 126.921 127.609 127.186 127.609H132.356Z" fill="white"/>
<path d="M68.082 190.957L62.1758 207H60.6758L67.1211 189.938H68.1641L68.082 190.957ZM73.4492 207L67.5312 190.957L67.4492 189.938H68.4922L74.9492 207H73.4492ZM72.3945 200.977V202.219H63.3359V200.977H72.3945ZM78.6406 194.32V207H77.2344V194.32H78.6406ZM86.9844 194.32L81.1719 201.188H78.1484L77.9961 199.934H80.5742L85.2148 194.32H86.9844ZM85.7188 207L80.4336 201L81.3242 199.922L87.5703 207H85.7188ZM94.0742 194.32V207H92.6797V194.32H94.0742ZM98.6914 194.32V195.516H88.2266V194.32H98.6914ZM102.488 204.727L109.344 194.32H110.75V207H109.344V196.594L102.488 207H101.105V194.32H102.488V204.727ZM120.113 201.152H115.66L115.637 199.98H119.434C120.199 199.98 120.836 199.898 121.344 199.734C121.859 199.562 122.246 199.309 122.504 198.973C122.77 198.637 122.902 198.223 122.902 197.73C122.902 197.355 122.824 197.027 122.668 196.746C122.52 196.465 122.293 196.234 121.988 196.055C121.691 195.875 121.316 195.742 120.863 195.656C120.418 195.562 119.898 195.516 119.305 195.516H116.059V207H114.664V194.32H119.305C120.078 194.32 120.77 194.391 121.379 194.531C121.996 194.664 122.523 194.867 122.961 195.141C123.398 195.414 123.73 195.766 123.957 196.195C124.191 196.617 124.309 197.117 124.309 197.695C124.309 198.086 124.234 198.453 124.086 198.797C123.938 199.133 123.719 199.438 123.43 199.711C123.148 199.977 122.801 200.195 122.387 200.367C121.973 200.531 121.496 200.633 120.957 200.672L120.113 201.152ZM120.113 207H115.227L115.766 205.805H120.113C120.816 205.805 121.414 205.715 121.906 205.535C122.398 205.355 122.77 205.09 123.02 204.738C123.277 204.387 123.406 203.961 123.406 203.461C123.406 202.992 123.277 202.586 123.02 202.242C122.77 201.898 122.398 201.633 121.906 201.445C121.414 201.25 120.816 201.152 120.113 201.152H116.879L116.902 199.98H121.062L121.66 200.426C122.301 200.48 122.855 200.652 123.324 200.941C123.793 201.23 124.156 201.598 124.414 202.043C124.672 202.48 124.801 202.961 124.801 203.484C124.801 204.062 124.691 204.574 124.473 205.02C124.254 205.457 123.938 205.824 123.523 206.121C123.117 206.41 122.625 206.629 122.047 206.777C121.469 206.926 120.824 207 120.113 207ZM136.59 199.992V201.188H129.066V199.992H136.59ZM129.43 194.32V207H128.035V194.32H129.43ZM137.668 194.32V207H136.262V194.32H137.668ZM140.668 200.859V200.473C140.668 199.551 140.801 198.699 141.066 197.918C141.332 197.137 141.711 196.461 142.203 195.891C142.703 195.32 143.301 194.879 143.996 194.566C144.691 194.246 145.465 194.086 146.316 194.086C147.176 194.086 147.953 194.246 148.648 194.566C149.344 194.879 149.941 195.32 150.441 195.891C150.941 196.461 151.324 197.137 151.59 197.918C151.855 198.699 151.988 199.551 151.988 200.473V200.859C151.988 201.781 151.855 202.633 151.59 203.414C151.324 204.188 150.941 204.859 150.441 205.43C149.949 206 149.355 206.445 148.66 206.766C147.965 207.078 147.191 207.234 146.34 207.234C145.48 207.234 144.703 207.078 144.008 206.766C143.312 206.445 142.715 206 142.215 205.43C141.715 204.859 141.332 204.188 141.066 203.414C140.801 202.633 140.668 201.781 140.668 200.859ZM142.062 200.473V200.859C142.062 201.555 142.156 202.215 142.344 202.84C142.531 203.457 142.805 204.008 143.164 204.492C143.523 204.969 143.969 205.344 144.5 205.617C145.031 205.891 145.645 206.027 146.34 206.027C147.027 206.027 147.633 205.891 148.156 205.617C148.688 205.344 149.133 204.969 149.492 204.492C149.852 204.008 150.121 203.457 150.301 202.84C150.488 202.215 150.582 201.555 150.582 200.859V200.473C150.582 199.785 150.488 199.133 150.301 198.516C150.121 197.898 149.848 197.348 149.48 196.863C149.121 196.379 148.676 195.996 148.145 195.715C147.613 195.434 147.004 195.293 146.316 195.293C145.629 195.293 145.02 195.434 144.488 195.715C143.965 195.996 143.52 196.379 143.152 196.863C142.793 197.348 142.52 197.898 142.332 198.516C142.152 199.133 142.062 199.785 142.062 200.473ZM159.57 206.027C160.164 206.027 160.719 205.918 161.234 205.699C161.758 205.473 162.188 205.141 162.523 204.703C162.867 204.258 163.062 203.715 163.109 203.074H164.445C164.406 203.879 164.16 204.598 163.707 205.23C163.262 205.855 162.676 206.348 161.949 206.707C161.23 207.059 160.438 207.234 159.57 207.234C158.688 207.234 157.906 207.074 157.227 206.754C156.555 206.434 155.992 205.988 155.539 205.418C155.086 204.84 154.742 204.168 154.508 203.402C154.281 202.629 154.168 201.797 154.168 200.906V200.414C154.168 199.523 154.281 198.695 154.508 197.93C154.742 197.156 155.086 196.484 155.539 195.914C155.992 195.336 156.555 194.887 157.227 194.566C157.898 194.246 158.676 194.086 159.559 194.086C160.465 194.086 161.277 194.27 161.996 194.637C162.723 195.004 163.301 195.523 163.73 196.195C164.168 196.867 164.406 197.664 164.445 198.586H163.109C163.07 197.906 162.891 197.32 162.57 196.828C162.25 196.336 161.828 195.957 161.305 195.691C160.781 195.426 160.199 195.293 159.559 195.293C158.84 195.293 158.227 195.434 157.719 195.715C157.211 195.988 156.797 196.367 156.477 196.852C156.164 197.328 155.934 197.875 155.785 198.492C155.637 199.102 155.562 199.742 155.562 200.414V200.906C155.562 201.586 155.633 202.234 155.773 202.852C155.922 203.461 156.152 204.004 156.465 204.48C156.785 204.957 157.199 205.336 157.707 205.617C158.223 205.891 158.844 206.027 159.57 206.027ZM171.746 194.32V207H170.352V194.32H171.746ZM176.363 194.32V195.516H165.898V194.32H176.363ZM179.727 198.914H183.863C184.863 198.914 185.707 199.09 186.395 199.441C187.082 199.785 187.602 200.262 187.953 200.871C188.312 201.48 188.492 202.168 188.492 202.934C188.492 203.512 188.391 204.051 188.188 204.551C187.992 205.043 187.695 205.473 187.297 205.84C186.906 206.207 186.422 206.492 185.844 206.695C185.273 206.898 184.613 207 183.863 207H178.836V194.32H180.23V205.793H183.863C184.637 205.793 185.262 205.66 185.738 205.395C186.215 205.121 186.559 204.77 186.77 204.34C186.988 203.91 187.098 203.453 187.098 202.969C187.098 202.492 186.988 202.039 186.77 201.609C186.559 201.172 186.215 200.816 185.738 200.543C185.262 200.262 184.637 200.121 183.863 200.121H179.727V198.914ZM83.6445 222.32V223.539H76.2266V222.32H83.6445ZM76.543 222.32V235H75.1484V222.32H76.543ZM84.793 222.32V235H83.3867V222.32H84.793ZM96.2656 232.727V226.188C96.2656 225.586 96.1406 225.066 95.8906 224.629C95.6406 224.191 95.2734 223.855 94.7891 223.621C94.3047 223.387 93.707 223.27 92.9961 223.27C92.3398 223.27 91.7539 223.387 91.2383 223.621C90.7305 223.848 90.3281 224.156 90.0312 224.547C89.7422 224.93 89.5977 225.355 89.5977 225.824L88.1914 225.812C88.1914 225.336 88.3086 224.875 88.543 224.43C88.7773 223.984 89.1094 223.586 89.5391 223.234C89.9688 222.883 90.4805 222.605 91.0742 222.402C91.6758 222.191 92.3359 222.086 93.0547 222.086C93.9609 222.086 94.7578 222.238 95.4453 222.543C96.1406 222.848 96.6836 223.305 97.0742 223.914C97.4648 224.523 97.6602 225.289 97.6602 226.211V232.34C97.6602 232.777 97.6914 233.23 97.7539 233.699C97.8242 234.168 97.9219 234.555 98.0469 234.859V235H96.5586C96.4648 234.719 96.3906 234.367 96.3359 233.945C96.2891 233.516 96.2656 233.109 96.2656 232.727ZM96.5938 227.617L96.6172 228.695H93.8633C93.1445 228.695 92.5 228.762 91.9297 228.895C91.3672 229.02 90.8906 229.207 90.5 229.457C90.1094 229.699 89.8086 229.992 89.5977 230.336C89.3945 230.68 89.293 231.07 89.293 231.508C89.293 231.961 89.4062 232.375 89.6328 232.75C89.8672 233.125 90.1953 233.426 90.6172 233.652C91.0469 233.871 91.5547 233.98 92.1406 233.98C92.9219 233.98 93.6094 233.836 94.2031 233.547C94.8047 233.258 95.3008 232.879 95.6914 232.41C96.082 231.941 96.3438 231.43 96.4766 230.875L97.0859 231.684C96.9844 232.074 96.7969 232.477 96.5234 232.891C96.2578 233.297 95.9102 233.68 95.4805 234.039C95.0508 234.391 94.543 234.68 93.957 234.906C93.3789 235.125 92.7227 235.234 91.9883 235.234C91.1602 235.234 90.4375 235.078 89.8203 234.766C89.2109 234.453 88.7344 234.027 88.3906 233.488C88.0547 232.941 87.8867 232.324 87.8867 231.637C87.8867 231.012 88.0195 230.453 88.2852 229.961C88.5508 229.461 88.9336 229.039 89.4336 228.695C89.9414 228.344 90.5508 228.078 91.2617 227.898C91.9805 227.711 92.7852 227.617 93.6758 227.617H96.5938ZM101.516 235V222.32H102.91V233.793H109.754V222.32H111.16V235H101.516ZM112.438 233.793L112.332 238.762H111.055V235H109.555V233.793H112.438ZM116.586 232.727L123.441 222.32H124.848V235H123.441V224.594L116.586 235H115.203V222.32H116.586V232.727ZM133.508 235.234C132.68 235.234 131.918 235.082 131.223 234.777C130.535 234.473 129.934 234.043 129.418 233.488C128.91 232.934 128.516 232.277 128.234 231.52C127.961 230.754 127.824 229.918 127.824 229.012V228.508C127.824 227.531 127.969 226.648 128.258 225.859C128.547 225.07 128.945 224.395 129.453 223.832C129.961 223.27 130.539 222.84 131.188 222.543C131.844 222.238 132.531 222.086 133.25 222.086C134.055 222.086 134.77 222.23 135.395 222.52C136.02 222.801 136.543 223.203 136.965 223.727C137.395 224.242 137.719 224.855 137.938 225.566C138.156 226.27 138.266 227.047 138.266 227.898V228.754H128.668V227.559H136.871V227.395C136.855 226.684 136.711 226.02 136.438 225.402C136.172 224.777 135.773 224.27 135.242 223.879C134.711 223.488 134.047 223.293 133.25 223.293C132.656 223.293 132.109 223.418 131.609 223.668C131.117 223.918 130.691 224.277 130.332 224.746C129.98 225.207 129.707 225.758 129.512 226.398C129.324 227.031 129.23 227.734 129.23 228.508V229.012C129.23 229.715 129.332 230.371 129.535 230.98C129.746 231.582 130.043 232.113 130.426 232.574C130.816 233.035 131.277 233.395 131.809 233.652C132.34 233.91 132.926 234.039 133.566 234.039C134.316 234.039 134.98 233.902 135.559 233.629C136.137 233.348 136.656 232.906 137.117 232.305L137.996 232.984C137.723 233.391 137.379 233.766 136.965 234.109C136.559 234.453 136.07 234.727 135.5 234.93C134.93 235.133 134.266 235.234 133.508 235.234ZM149.68 227.992V229.188H142.156V227.992H149.68ZM142.52 222.32V235H141.125V222.32H142.52ZM150.758 222.32V235H149.352V222.32H150.758ZM159.008 222.32V235H157.613V222.32H159.008ZM163.625 222.32V223.516H153.16V222.32H163.625ZM173.469 232.727V226.188C173.469 225.586 173.344 225.066 173.094 224.629C172.844 224.191 172.477 223.855 171.992 223.621C171.508 223.387 170.91 223.27 170.199 223.27C169.543 223.27 168.957 223.387 168.441 223.621C167.934 223.848 167.531 224.156 167.234 224.547C166.945 224.93 166.801 225.355 166.801 225.824L165.395 225.812C165.395 225.336 165.512 224.875 165.746 224.43C165.98 223.984 166.312 223.586 166.742 223.234C167.172 222.883 167.684 222.605 168.277 222.402C168.879 222.191 169.539 222.086 170.258 222.086C171.164 222.086 171.961 222.238 172.648 222.543C173.344 222.848 173.887 223.305 174.277 223.914C174.668 224.523 174.863 225.289 174.863 226.211V232.34C174.863 232.777 174.895 233.23 174.957 233.699C175.027 234.168 175.125 234.555 175.25 234.859V235H173.762C173.668 234.719 173.594 234.367 173.539 233.945C173.492 233.516 173.469 233.109 173.469 232.727ZM173.797 227.617L173.82 228.695H171.066C170.348 228.695 169.703 228.762 169.133 228.895C168.57 229.02 168.094 229.207 167.703 229.457C167.312 229.699 167.012 229.992 166.801 230.336C166.598 230.68 166.496 231.07 166.496 231.508C166.496 231.961 166.609 232.375 166.836 232.75C167.07 233.125 167.398 233.426 167.82 233.652C168.25 233.871 168.758 233.98 169.344 233.98C170.125 233.98 170.812 233.836 171.406 233.547C172.008 233.258 172.504 232.879 172.895 232.41C173.285 231.941 173.547 231.43 173.68 230.875L174.289 231.684C174.188 232.074 174 232.477 173.727 232.891C173.461 233.297 173.113 233.68 172.684 234.039C172.254 234.391 171.746 234.68 171.16 234.906C170.582 235.125 169.926 235.234 169.191 235.234C168.363 235.234 167.641 235.078 167.023 234.766C166.414 234.453 165.938 234.027 165.594 233.488C165.258 232.941 165.09 232.324 165.09 231.637C165.09 231.012 165.223 230.453 165.488 229.961C165.754 229.461 166.137 229.039 166.637 228.695C167.145 228.344 167.754 228.078 168.465 227.898C169.184 227.711 169.988 227.617 170.879 227.617H173.797Z" fill="#333333"/>
</svg>
