<svg width="84" height="84" viewBox="0 0 84 84" fill="none" xmlns="http://www.w3.org/2000/svg">
<circle cx="42" cy="42" r="42" fill="#44BBEE"/>
<path d="M41.9315 49.2953C42.5297 49.2953 43.0142 48.8108 43.0142 48.2126C43.0142 47.6148 42.5297 47.1299 41.9315 47.1299C41.0701 47.1299 40.2438 46.7878 39.6346 46.1787C39.0255 45.5695 38.683 44.7432 38.683 43.8814C38.683 43.2836 38.1984 42.7987 37.6003 42.7987C37.0025 42.7987 36.5176 43.2836 36.5176 43.8814C36.5176 45.3175 37.0878 46.6945 38.1033 47.7096C39.1184 48.7252 40.4957 49.2954 41.9315 49.2954L41.9315 49.2953Z" fill="white"/>
<path d="M32.187 44.0603C32.187 47.5422 34.0447 50.7593 37.0598 52.4999C40.075 54.2409 43.7894 54.2409 46.8049 52.4999C49.8201 50.7593 51.6777 47.5422 51.6777 44.0603V44.0168V43.9572V43.876V43.8763C51.6795 43.8529 51.6795 43.8295 51.6777 43.8061C51.6017 40.0814 49.5123 37.1848 47.6768 35.0787H47.6765C46.5948 33.8483 45.4509 32.6738 44.2497 31.5598L42.6904 30.098C42.6413 30.0606 42.5888 30.0277 42.5333 30.0005C42.477 29.9575 42.4174 29.9197 42.3547 29.8869C42.2897 29.8646 42.2225 29.8502 42.1545 29.8434C42.0824 29.8215 42.0076 29.8091 41.9325 29.8057C41.8645 29.8083 41.7973 29.8193 41.7323 29.8381C41.6621 29.8446 41.5929 29.8593 41.5265 29.8816C41.4627 29.9122 41.4026 29.9503 41.3479 29.9952C41.2923 30.0224 41.2398 30.0549 41.1908 30.0927L39.6314 31.5545V31.5542C38.4301 32.6682 37.2862 33.8431 36.2047 35.0734C34.3531 37.1849 32.2794 40.092 32.1872 43.8061C32.185 43.8311 32.185 43.8567 32.1872 43.8817V43.9629V44.0225V44.0603L32.187 44.0603ZM37.8284 36.4809C38.8627 35.3071 39.9561 34.187 41.1041 33.1244L41.9323 32.3717L42.7499 33.1406C43.8975 34.2033 44.9909 35.3234 46.0252 36.4971C47.7359 38.4677 49.5116 40.8934 49.5116 43.9576C49.5116 46.6657 48.0672 49.1676 45.722 50.5218C43.3767 51.8757 40.4877 51.8757 38.1426 50.5218C35.7974 49.1675 34.3529 46.6656 34.3529 43.9576C34.3797 40.8934 36.1286 38.4677 37.8393 36.4971L37.8284 36.4809Z" fill="white"/>
</svg>
