<svg width="84" height="84" viewBox="0 0 84 84" fill="none" xmlns="http://www.w3.org/2000/svg">
<circle cx="42" cy="42" r="42" fill="#44BBEE"/>
<path d="M35.9982 29.5992H32.998C32.4459 29.5992 31.9981 30.0467 31.9981 30.5991C31.9981 32.4556 32.7357 34.2361 34.0482 35.549C35.3609 36.8617 37.1415 37.5991 38.998 37.5991H40.9979V41.709H40.9982C39.6851 40.3593 37.8816 39.5982 35.9982 39.5993H32.998C32.4459 39.5993 31.998 40.0467 31.998 40.5992C31.998 42.4557 32.7357 44.2362 34.0482 45.5491C35.3609 46.8618 37.1415 47.5992 38.998 47.5992H40.9979L40.9982 52.5992C40.9982 53.1517 41.4457 53.5991 41.9981 53.5991C42.5506 53.5991 42.998 53.1516 42.998 52.5992V42.5991H44.9982C46.8548 42.5991 48.6352 41.8618 49.9481 40.549C51.2605 39.2362 51.9982 37.4557 51.9982 35.5991C51.9982 35.3337 51.8929 35.0795 51.7052 34.8918C51.5179 34.7045 51.2633 34.5992 50.9983 34.5992H47.9981C46.1147 34.5982 44.3112 35.3592 42.998 36.709V36.5991C42.998 34.7426 42.2607 32.9621 40.9479 31.6492C39.6351 30.3364 37.8546 29.5991 35.9981 29.5991L35.9982 29.5992ZM38.9984 35.5991H38.998C37.8457 35.5991 36.7282 35.2012 35.8353 34.4723C34.9425 33.7433 34.3286 32.7284 34.0981 31.599H35.9982C37.1509 31.5987 38.268 31.997 39.1609 32.7255C40.0541 33.4545 40.6676 34.4698 40.8981 35.5991H38.9984ZM38.9984 45.5992H38.998C37.8457 45.5992 36.7282 45.2013 35.8353 44.4723C34.9425 43.7434 34.3286 42.7285 34.0981 41.5991H35.9982C37.1509 41.5988 38.268 41.9971 39.1609 42.7256C40.0541 43.4546 40.6676 44.4698 40.8981 45.5992H38.9984ZM47.9985 36.5992H49.8986C49.668 37.7284 49.0542 38.7435 48.1613 39.4724C47.2685 40.2013 46.1509 40.5993 44.9986 40.5993H43.0985C43.329 39.47 43.9425 38.4546 44.8358 37.7257C45.7286 36.9971 46.8458 36.5988 47.9985 36.5992Z" fill="white"/>
</svg>
