<svg width="84" height="84" viewBox="0 0 84 84" fill="none" xmlns="http://www.w3.org/2000/svg">
<circle cx="42" cy="42" r="42" fill="#44BBEE"/>
<path d="M48.0002 42.0002C48.0002 40.4088 47.3682 38.8828 46.2427 37.7576C45.1175 36.6322 43.5916 36.0001 42.0001 36.0001C40.4085 36.0001 38.8827 36.6321 37.7575 37.7576C36.6321 38.8828 36 40.4087 36 42.0002C36 43.5918 36.632 45.1176 37.7575 46.2428C38.8827 47.3682 40.4085 48.0003 42.0001 48.0003C43.5916 48.0003 45.1175 47.3683 46.2427 46.2428C47.3681 45.1176 48.0002 43.5918 48.0002 42.0002ZM42.0002 46.0004C40.9392 46.0004 39.9218 45.5787 39.1716 44.8288C38.4217 44.0786 38 43.0612 38 42.0002C38 40.9392 38.4217 39.9219 39.1716 39.1716C39.9218 38.4217 40.9392 38.0001 42.0002 38.0001C43.0612 38.0001 44.0785 38.4217 44.8288 39.1716C45.5787 39.9218 46.0003 40.9392 46.0003 42.0002C46.0003 43.0612 45.5787 44.0785 44.8288 44.8288C44.0786 45.5787 43.0612 46.0004 42.0002 46.0004Z" fill="white"/>
<path d="M41.9999 30C42.5524 30 42.9999 30.5525 42.9999 30.9999V32.9998C42.9999 33.5522 42.552 33.9997 41.9999 33.9997C41.4475 33.9997 41 33.4472 41 32.9998V30.9999C41 30.4475 41.4478 30 41.9999 30Z" fill="white"/>
<path d="M41.9999 50.0003C42.5524 50.0003 42.9999 50.5528 42.9999 51.0002V53.0001C42.9999 53.5525 42.552 54 41.9999 54C41.4475 54 41 53.4475 41 53.0001V51.0002C41 50.4478 41.4478 50.0003 41.9999 50.0003Z" fill="white"/>
<path d="M30.9999 43.0002H32.9998C33.2652 43.0002 33.5195 42.8949 33.7071 42.7072C33.8944 42.5199 33.9997 42.2653 33.9997 42.0002C33.9997 41.7352 33.8944 41.4806 33.7071 41.2933C33.5195 41.1056 33.2652 41.0003 32.9998 41.0003H30.9999C30.4475 41.0003 30 41.4478 30 42.0002C30 42.2653 30.1053 42.5199 30.2926 42.7072C30.4803 42.8949 30.7345 43.0002 30.9999 43.0002L30.9999 43.0002Z" fill="white"/>
<path d="M52.9998 43.0003C53.2652 43.0003 53.5195 42.8949 53.7071 42.7073C53.8944 42.52 53.9997 42.2654 53.9997 42.0003C53.9997 41.7352 53.8944 41.4806 53.7071 41.2933C53.5195 41.1057 53.2652 41.0004 52.9998 41.0004H50.9999C50.4475 41.0004 50 41.4478 50 42.0003C50 42.2654 50.1053 42.52 50.2926 42.7073C50.4803 42.8949 50.7345 43.0002 50.9999 43.0002L52.9998 43.0003Z" fill="white"/>
<path d="M36.3443 36.3447C36.5319 36.1571 36.6376 35.9025 36.6376 35.6371C36.6376 35.3716 36.5319 35.1174 36.3443 34.9297L34.9293 33.4997C34.5344 33.1049 33.8941 33.1049 33.4992 33.4997C33.1044 33.8945 33.1044 34.5349 33.4992 34.9297L34.9143 36.3448C35.1023 36.5373 35.36 36.6458 35.6293 36.6458C35.8985 36.6458 36.1563 36.5373 36.3442 36.3448L36.3443 36.3447Z" fill="white"/>
<path d="M49.0699 50.5003C49.4648 50.8951 50.1051 50.8951 50.5 50.5003C50.8948 50.1055 50.8948 49.4651 50.5 49.0703L49.0849 47.6553C48.6943 47.2646 48.0606 47.2646 47.6699 47.6553C47.2793 48.0459 47.2793 48.6797 47.6699 49.0703L49.0699 50.5003Z" fill="white"/>
<path d="M33.5002 50.5003C33.6879 50.6883 33.9421 50.7937 34.2076 50.7937C34.473 50.7937 34.7276 50.6883 34.9152 50.5003L36.3303 49.0853C36.7209 48.6947 36.7209 48.0609 36.3303 47.6703C35.9396 47.2797 35.3059 47.2797 34.9152 47.6703L33.5002 49.0703C33.3077 49.2587 33.1992 49.5164 33.1992 49.7853C33.1992 50.0546 33.3077 50.3123 33.5002 50.5003L33.5002 50.5003Z" fill="white"/>
<path d="M49.0693 36.3448L50.4993 34.9298C50.8942 34.5349 50.8942 33.8946 50.4993 33.4997C50.1045 33.1049 49.4641 33.1049 49.0693 33.4997L47.6543 34.9148C47.2637 35.3054 47.2637 35.9391 47.6543 36.3298C48.0449 36.7204 48.6787 36.7204 49.0693 36.3298V36.3448Z" fill="white"/>
</svg>
