<svg width="250" height="328" viewBox="0 0 250 328" fill="none" xmlns="http://www.w3.org/2000/svg">
<rect width="250" height="328" rx="40" fill="white"/>
<circle cx="126" cy="129" r="42" fill="#44BBEE"/>
<path d="M126.4 118.622C126.4 117.343 125.139 117.024 124.509 117.024C121.988 116.757 116 118.622 116 128.213C116 137.803 123.248 140.734 126.4 141M126.4 118.622V141M126.4 118.622C126.4 117.343 127.661 117.024 128.291 117.024C130.812 116.757 136.8 118.622 136.8 128.213C136.8 137.803 129.552 140.734 126.4 141M121.673 124.217C124.509 124.217 126.4 123.417 126.4 120.221C126.4 123.417 128.291 124.217 131.127 124.217M116 127.413C118.836 127.413 122.618 127.014 122.618 130.61M125.927 135.406C122.618 135.406 119.782 135.406 119.782 131.41M123.564 135.406V137.4M136.8 127.413C133.964 127.413 130.182 127.014 130.182 130.61M126.873 135.406C130.182 135.406 133.018 135.406 133.018 131.41M129.236 135.406V137.4" stroke="white" stroke-width="2" stroke-linecap="round" stroke-linejoin="round"/>
<path d="M67.9062 189.938V207H66.4766V191.18H56.8086V207H55.3672V189.938H67.9062ZM76.6602 206.027C77.2539 206.027 77.8086 205.918 78.3242 205.699C78.8477 205.473 79.2773 205.141 79.6133 204.703C79.957 204.258 80.1523 203.715 80.1992 203.074H81.5352C81.4961 203.879 81.25 204.598 80.7969 205.23C80.3516 205.855 79.7656 206.348 79.0391 206.707C78.3203 207.059 77.5273 207.234 76.6602 207.234C75.7773 207.234 74.9961 207.074 74.3164 206.754C73.6445 206.434 73.082 205.988 72.6289 205.418C72.1758 204.84 71.832 204.168 71.5977 203.402C71.3711 202.629 71.2578 201.797 71.2578 200.906V200.414C71.2578 199.523 71.3711 198.695 71.5977 197.93C71.832 197.156 72.1758 196.484 72.6289 195.914C73.082 195.336 73.6445 194.887 74.3164 194.566C74.9883 194.246 75.7656 194.086 76.6484 194.086C77.5547 194.086 78.3672 194.27 79.0859 194.637C79.8125 195.004 80.3906 195.523 80.8203 196.195C81.2578 196.867 81.4961 197.664 81.5352 198.586H80.1992C80.1602 197.906 79.9805 197.32 79.6602 196.828C79.3398 196.336 78.918 195.957 78.3945 195.691C77.8711 195.426 77.2891 195.293 76.6484 195.293C75.9297 195.293 75.3164 195.434 74.8086 195.715C74.3008 195.988 73.8867 196.367 73.5664 196.852C73.2539 197.328 73.0234 197.875 72.875 198.492C72.7266 199.102 72.6523 199.742 72.6523 200.414V200.906C72.6523 201.586 72.7227 202.234 72.8633 202.852C73.0117 203.461 73.2422 204.004 73.5547 204.48C73.875 204.957 74.2891 205.336 74.7969 205.617C75.3125 205.891 75.9336 206.027 76.6602 206.027ZM85.8359 204.727L92.6914 194.32H94.0977V207H92.6914V196.594L85.8359 207H84.4531V194.32H85.8359V204.727ZM98.4102 194.32L101.832 199.441L105.266 194.32H106.93L102.629 200.531L107.105 207H105.465L101.844 201.645L98.2344 207H96.5938L101.07 200.531L96.7695 194.32H98.4102ZM111.031 204.727L117.887 194.32H119.293V207H117.887V196.594L111.031 207H109.648V194.32H111.031V204.727ZM132.066 194.32V207H130.672V194.32H132.066ZM131.586 200.074V201.281C131.227 201.453 130.812 201.617 130.344 201.773C129.883 201.93 129.395 202.059 128.879 202.16C128.371 202.254 127.863 202.301 127.355 202.301C126.309 202.301 125.422 202.148 124.695 201.844C123.977 201.539 123.434 201.039 123.066 200.344C122.699 199.641 122.516 198.703 122.516 197.531V194.309H123.91V197.531C123.91 198.43 124.035 199.141 124.285 199.664C124.535 200.18 124.914 200.547 125.422 200.766C125.93 200.984 126.574 201.094 127.355 201.094C127.895 201.078 128.43 201.023 128.961 200.93C129.492 200.828 129.984 200.703 130.438 200.555C130.898 200.398 131.281 200.238 131.586 200.074ZM140.727 207.234C139.898 207.234 139.137 207.082 138.441 206.777C137.754 206.473 137.152 206.043 136.637 205.488C136.129 204.934 135.734 204.277 135.453 203.52C135.18 202.754 135.043 201.918 135.043 201.012V200.508C135.043 199.531 135.188 198.648 135.477 197.859C135.766 197.07 136.164 196.395 136.672 195.832C137.18 195.27 137.758 194.84 138.406 194.543C139.062 194.238 139.75 194.086 140.469 194.086C141.273 194.086 141.988 194.23 142.613 194.52C143.238 194.801 143.762 195.203 144.184 195.727C144.613 196.242 144.938 196.855 145.156 197.566C145.375 198.27 145.484 199.047 145.484 199.898V200.754H135.887V199.559H144.09V199.395C144.074 198.684 143.93 198.02 143.656 197.402C143.391 196.777 142.992 196.27 142.461 195.879C141.93 195.488 141.266 195.293 140.469 195.293C139.875 195.293 139.328 195.418 138.828 195.668C138.336 195.918 137.91 196.277 137.551 196.746C137.199 197.207 136.926 197.758 136.73 198.398C136.543 199.031 136.449 199.734 136.449 200.508V201.012C136.449 201.715 136.551 202.371 136.754 202.98C136.965 203.582 137.262 204.113 137.645 204.574C138.035 205.035 138.496 205.395 139.027 205.652C139.559 205.91 140.145 206.039 140.785 206.039C141.535 206.039 142.199 205.902 142.777 205.629C143.355 205.348 143.875 204.906 144.336 204.305L145.215 204.984C144.941 205.391 144.598 205.766 144.184 206.109C143.777 206.453 143.289 206.727 142.719 206.93C142.148 207.133 141.484 207.234 140.727 207.234ZM152.926 206.027C153.52 206.027 154.074 205.918 154.59 205.699C155.113 205.473 155.543 205.141 155.879 204.703C156.223 204.258 156.418 203.715 156.465 203.074H157.801C157.762 203.879 157.516 204.598 157.062 205.23C156.617 205.855 156.031 206.348 155.305 206.707C154.586 207.059 153.793 207.234 152.926 207.234C152.043 207.234 151.262 207.074 150.582 206.754C149.91 206.434 149.348 205.988 148.895 205.418C148.441 204.84 148.098 204.168 147.863 203.402C147.637 202.629 147.523 201.797 147.523 200.906V200.414C147.523 199.523 147.637 198.695 147.863 197.93C148.098 197.156 148.441 196.484 148.895 195.914C149.348 195.336 149.91 194.887 150.582 194.566C151.254 194.246 152.031 194.086 152.914 194.086C153.82 194.086 154.633 194.27 155.352 194.637C156.078 195.004 156.656 195.523 157.086 196.195C157.523 196.867 157.762 197.664 157.801 198.586H156.465C156.426 197.906 156.246 197.32 155.926 196.828C155.605 196.336 155.184 195.957 154.66 195.691C154.137 195.426 153.555 195.293 152.914 195.293C152.195 195.293 151.582 195.434 151.074 195.715C150.566 195.988 150.152 196.367 149.832 196.852C149.52 197.328 149.289 197.875 149.141 198.492C148.992 199.102 148.918 199.742 148.918 200.414V200.906C148.918 201.586 148.988 202.234 149.129 202.852C149.277 203.461 149.508 204.004 149.82 204.48C150.141 204.957 150.555 205.336 151.062 205.617C151.578 205.891 152.199 206.027 152.926 206.027ZM162.113 194.32V207H160.707V194.32H162.113ZM170.457 194.32L164.645 201.188H161.621L161.469 199.934H164.047L168.688 194.32H170.457ZM169.191 207L163.906 201L164.797 199.922L171.043 207H169.191ZM172.039 200.859V200.473C172.039 199.551 172.172 198.699 172.438 197.918C172.703 197.137 173.082 196.461 173.574 195.891C174.074 195.32 174.672 194.879 175.367 194.566C176.062 194.246 176.836 194.086 177.688 194.086C178.547 194.086 179.324 194.246 180.02 194.566C180.715 194.879 181.312 195.32 181.812 195.891C182.312 196.461 182.695 197.137 182.961 197.918C183.227 198.699 183.359 199.551 183.359 200.473V200.859C183.359 201.781 183.227 202.633 182.961 203.414C182.695 204.188 182.312 204.859 181.812 205.43C181.32 206 180.727 206.445 180.031 206.766C179.336 207.078 178.562 207.234 177.711 207.234C176.852 207.234 176.074 207.078 175.379 206.766C174.684 206.445 174.086 206 173.586 205.43C173.086 204.859 172.703 204.188 172.438 203.414C172.172 202.633 172.039 201.781 172.039 200.859ZM173.434 200.473V200.859C173.434 201.555 173.527 202.215 173.715 202.84C173.902 203.457 174.176 204.008 174.535 204.492C174.895 204.969 175.34 205.344 175.871 205.617C176.402 205.891 177.016 206.027 177.711 206.027C178.398 206.027 179.004 205.891 179.527 205.617C180.059 205.344 180.504 204.969 180.863 204.492C181.223 204.008 181.492 203.457 181.672 202.84C181.859 202.215 181.953 201.555 181.953 200.859V200.473C181.953 199.785 181.859 199.133 181.672 198.516C181.492 197.898 181.219 197.348 180.852 196.863C180.492 196.379 180.047 195.996 179.516 195.715C178.984 195.434 178.375 195.293 177.688 195.293C177 195.293 176.391 195.434 175.859 195.715C175.336 195.996 174.891 196.379 174.523 196.863C174.164 197.348 173.891 197.898 173.703 198.516C173.523 199.133 173.434 199.785 173.434 200.473ZM191.164 207.234C190.336 207.234 189.574 207.082 188.879 206.777C188.191 206.473 187.59 206.043 187.074 205.488C186.566 204.934 186.172 204.277 185.891 203.52C185.617 202.754 185.48 201.918 185.48 201.012V200.508C185.48 199.531 185.625 198.648 185.914 197.859C186.203 197.07 186.602 196.395 187.109 195.832C187.617 195.27 188.195 194.84 188.844 194.543C189.5 194.238 190.188 194.086 190.906 194.086C191.711 194.086 192.426 194.23 193.051 194.52C193.676 194.801 194.199 195.203 194.621 195.727C195.051 196.242 195.375 196.855 195.594 197.566C195.812 198.27 195.922 199.047 195.922 199.898V200.754H186.324V199.559H194.527V199.395C194.512 198.684 194.367 198.02 194.094 197.402C193.828 196.777 193.43 196.27 192.898 195.879C192.367 195.488 191.703 195.293 190.906 195.293C190.312 195.293 189.766 195.418 189.266 195.668C188.773 195.918 188.348 196.277 187.988 196.746C187.637 197.207 187.363 197.758 187.168 198.398C186.98 199.031 186.887 199.734 186.887 200.508V201.012C186.887 201.715 186.988 202.371 187.191 202.98C187.402 203.582 187.699 204.113 188.082 204.574C188.473 205.035 188.934 205.395 189.465 205.652C189.996 205.91 190.582 206.039 191.223 206.039C191.973 206.039 192.637 205.902 193.215 205.629C193.793 205.348 194.312 204.906 194.773 204.305L195.652 204.984C195.379 205.391 195.035 205.766 194.621 206.109C194.215 206.453 193.727 206.727 193.156 206.93C192.586 207.133 191.922 207.234 191.164 207.234ZM74 234.027C74.5938 234.027 75.1484 233.918 75.6641 233.699C76.1875 233.473 76.6172 233.141 76.9531 232.703C77.2969 232.258 77.4922 231.715 77.5391 231.074H78.875C78.8359 231.879 78.5898 232.598 78.1367 233.23C77.6914 233.855 77.1055 234.348 76.3789 234.707C75.6602 235.059 74.8672 235.234 74 235.234C73.1172 235.234 72.3359 235.074 71.6562 234.754C70.9844 234.434 70.4219 233.988 69.9688 233.418C69.5156 232.84 69.1719 232.168 68.9375 231.402C68.7109 230.629 68.5977 229.797 68.5977 228.906V228.414C68.5977 227.523 68.7109 226.695 68.9375 225.93C69.1719 225.156 69.5156 224.484 69.9688 223.914C70.4219 223.336 70.9844 222.887 71.6562 222.566C72.3281 222.246 73.1055 222.086 73.9883 222.086C74.8945 222.086 75.707 222.27 76.4258 222.637C77.1523 223.004 77.7305 223.523 78.1602 224.195C78.5977 224.867 78.8359 225.664 78.875 226.586H77.5391C77.5 225.906 77.3203 225.32 77 224.828C76.6797 224.336 76.2578 223.957 75.7344 223.691C75.2109 223.426 74.6289 223.293 73.9883 223.293C73.2695 223.293 72.6562 223.434 72.1484 223.715C71.6406 223.988 71.2266 224.367 70.9062 224.852C70.5938 225.328 70.3633 225.875 70.2148 226.492C70.0664 227.102 69.9922 227.742 69.9922 228.414V228.906C69.9922 229.586 70.0625 230.234 70.2031 230.852C70.3516 231.461 70.582 232.004 70.8945 232.48C71.2148 232.957 71.6289 233.336 72.1367 233.617C72.6523 233.891 73.2734 234.027 74 234.027ZM80.9258 228.859V228.473C80.9258 227.551 81.0586 226.699 81.3242 225.918C81.5898 225.137 81.9688 224.461 82.4609 223.891C82.9609 223.32 83.5586 222.879 84.2539 222.566C84.9492 222.246 85.7227 222.086 86.5742 222.086C87.4336 222.086 88.2109 222.246 88.9062 222.566C89.6016 222.879 90.1992 223.32 90.6992 223.891C91.1992 224.461 91.582 225.137 91.8477 225.918C92.1133 226.699 92.2461 227.551 92.2461 228.473V228.859C92.2461 229.781 92.1133 230.633 91.8477 231.414C91.582 232.188 91.1992 232.859 90.6992 233.43C90.207 234 89.6133 234.445 88.918 234.766C88.2227 235.078 87.4492 235.234 86.5977 235.234C85.7383 235.234 84.9609 235.078 84.2656 234.766C83.5703 234.445 82.9727 234 82.4727 233.43C81.9727 232.859 81.5898 232.188 81.3242 231.414C81.0586 230.633 80.9258 229.781 80.9258 228.859ZM82.3203 228.473V228.859C82.3203 229.555 82.4141 230.215 82.6016 230.84C82.7891 231.457 83.0625 232.008 83.4219 232.492C83.7812 232.969 84.2266 233.344 84.7578 233.617C85.2891 233.891 85.9023 234.027 86.5977 234.027C87.2852 234.027 87.8906 233.891 88.4141 233.617C88.9453 233.344 89.3906 232.969 89.75 232.492C90.1094 232.008 90.3789 231.457 90.5586 230.84C90.7461 230.215 90.8398 229.555 90.8398 228.859V228.473C90.8398 227.785 90.7461 227.133 90.5586 226.516C90.3789 225.898 90.1055 225.348 89.7383 224.863C89.3789 224.379 88.9336 223.996 88.4023 223.715C87.8711 223.434 87.2617 223.293 86.5742 223.293C85.8867 223.293 85.2773 223.434 84.7461 223.715C84.2227 223.996 83.7773 224.379 83.4102 224.863C83.0508 225.348 82.7773 225.898 82.5898 226.516C82.4102 227.133 82.3203 227.785 82.3203 228.473ZM99.8281 234.027C100.422 234.027 100.977 233.918 101.492 233.699C102.016 233.473 102.445 233.141 102.781 232.703C103.125 232.258 103.32 231.715 103.367 231.074H104.703C104.664 231.879 104.418 232.598 103.965 233.23C103.52 233.855 102.934 234.348 102.207 234.707C101.488 235.059 100.695 235.234 99.8281 235.234C98.9453 235.234 98.1641 235.074 97.4844 234.754C96.8125 234.434 96.25 233.988 95.7969 233.418C95.3438 232.84 95 232.168 94.7656 231.402C94.5391 230.629 94.4258 229.797 94.4258 228.906V228.414C94.4258 227.523 94.5391 226.695 94.7656 225.93C95 225.156 95.3438 224.484 95.7969 223.914C96.25 223.336 96.8125 222.887 97.4844 222.566C98.1562 222.246 98.9336 222.086 99.8164 222.086C100.723 222.086 101.535 222.27 102.254 222.637C102.98 223.004 103.559 223.523 103.988 224.195C104.426 224.867 104.664 225.664 104.703 226.586H103.367C103.328 225.906 103.148 225.32 102.828 224.828C102.508 224.336 102.086 223.957 101.562 223.691C101.039 223.426 100.457 223.293 99.8164 223.293C99.0977 223.293 98.4844 223.434 97.9766 223.715C97.4688 223.988 97.0547 224.367 96.7344 224.852C96.4219 225.328 96.1914 225.875 96.043 226.492C95.8945 227.102 95.8203 227.742 95.8203 228.414V228.906C95.8203 229.586 95.8906 230.234 96.0312 230.852C96.1797 231.461 96.4102 232.004 96.7227 232.48C97.043 232.957 97.457 233.336 97.9648 233.617C98.4805 233.891 99.1016 234.027 99.8281 234.027ZM112.004 222.32V235H110.609V222.32H112.004ZM116.621 222.32V223.516H106.156V222.32H116.621ZM117.676 228.859V228.473C117.676 227.551 117.809 226.699 118.074 225.918C118.34 225.137 118.719 224.461 119.211 223.891C119.711 223.32 120.309 222.879 121.004 222.566C121.699 222.246 122.473 222.086 123.324 222.086C124.184 222.086 124.961 222.246 125.656 222.566C126.352 222.879 126.949 223.32 127.449 223.891C127.949 224.461 128.332 225.137 128.598 225.918C128.863 226.699 128.996 227.551 128.996 228.473V228.859C128.996 229.781 128.863 230.633 128.598 231.414C128.332 232.188 127.949 232.859 127.449 233.43C126.957 234 126.363 234.445 125.668 234.766C124.973 235.078 124.199 235.234 123.348 235.234C122.488 235.234 121.711 235.078 121.016 234.766C120.32 234.445 119.723 234 119.223 233.43C118.723 232.859 118.34 232.188 118.074 231.414C117.809 230.633 117.676 229.781 117.676 228.859ZM119.07 228.473V228.859C119.07 229.555 119.164 230.215 119.352 230.84C119.539 231.457 119.812 232.008 120.172 232.492C120.531 232.969 120.977 233.344 121.508 233.617C122.039 233.891 122.652 234.027 123.348 234.027C124.035 234.027 124.641 233.891 125.164 233.617C125.695 233.344 126.141 232.969 126.5 232.492C126.859 232.008 127.129 231.457 127.309 230.84C127.496 230.215 127.59 229.555 127.59 228.859V228.473C127.59 227.785 127.496 227.133 127.309 226.516C127.129 225.898 126.855 225.348 126.488 224.863C126.129 224.379 125.684 223.996 125.152 223.715C124.621 223.434 124.012 223.293 123.324 223.293C122.637 223.293 122.027 223.434 121.496 223.715C120.973 223.996 120.527 224.379 120.16 224.863C119.801 225.348 119.527 225.898 119.34 226.516C119.16 227.133 119.07 227.785 119.07 228.473ZM134.668 229.188H136.215L132.699 235H131.152L134.668 229.188ZM136.156 222.32H141.137V235H139.742V223.516H136.156C135.414 223.516 134.809 223.641 134.34 223.891C133.879 224.133 133.539 224.453 133.32 224.852C133.109 225.25 133.004 225.676 133.004 226.129C133.004 226.559 133.098 226.969 133.285 227.359C133.48 227.75 133.781 228.07 134.188 228.32C134.594 228.562 135.121 228.684 135.77 228.684H140.246V229.891H135.77C135.105 229.891 134.516 229.797 134 229.609C133.484 229.422 133.047 229.16 132.688 228.824C132.336 228.48 132.066 228.078 131.879 227.617C131.699 227.148 131.609 226.645 131.609 226.105C131.609 225.559 131.707 225.059 131.902 224.605C132.105 224.145 132.398 223.742 132.781 223.398C133.172 223.055 133.648 222.789 134.211 222.602C134.781 222.414 135.43 222.32 136.156 222.32ZM153.582 227.992V229.188H146.059V227.992H153.582ZM146.422 222.32V235H145.027V222.32H146.422ZM154.66 222.32V235H153.254V222.32H154.66ZM159.91 232.727L166.766 222.32H168.172V235H166.766V224.594L159.91 235H158.527V222.32H159.91V232.727ZM176.832 235.234C176.004 235.234 175.242 235.082 174.547 234.777C173.859 234.473 173.258 234.043 172.742 233.488C172.234 232.934 171.84 232.277 171.559 231.52C171.285 230.754 171.148 229.918 171.148 229.012V228.508C171.148 227.531 171.293 226.648 171.582 225.859C171.871 225.07 172.27 224.395 172.777 223.832C173.285 223.27 173.863 222.84 174.512 222.543C175.168 222.238 175.855 222.086 176.574 222.086C177.379 222.086 178.094 222.23 178.719 222.52C179.344 222.801 179.867 223.203 180.289 223.727C180.719 224.242 181.043 224.855 181.262 225.566C181.48 226.27 181.59 227.047 181.59 227.898V228.754H171.992V227.559H180.195V227.395C180.18 226.684 180.035 226.02 179.762 225.402C179.496 224.777 179.098 224.27 178.566 223.879C178.035 223.488 177.371 223.293 176.574 223.293C175.98 223.293 175.434 223.418 174.934 223.668C174.441 223.918 174.016 224.277 173.656 224.746C173.305 225.207 173.031 225.758 172.836 226.398C172.648 227.031 172.555 227.734 172.555 228.508V229.012C172.555 229.715 172.656 230.371 172.859 230.98C173.07 231.582 173.367 232.113 173.75 232.574C174.141 233.035 174.602 233.395 175.133 233.652C175.664 233.91 176.25 234.039 176.891 234.039C177.641 234.039 178.305 233.902 178.883 233.629C179.461 233.348 179.98 232.906 180.441 232.305L181.32 232.984C181.047 233.391 180.703 233.766 180.289 234.109C179.883 234.453 179.395 234.727 178.824 234.93C178.254 235.133 177.59 235.234 176.832 235.234Z" fill="#333333"/>
</svg>
